<svg id="svg" version="1.1" width="1622" height="1683" xmlns="http://www.w3.org/2000/svg"><path d="M778.000 135.021 C 755.781 138.102,731.050 145.928,709.797 156.602 C 682.481 170.321,657.294 185.975,634.514 203.392 L 623.528 211.791 618.684 207.646 C 603.395 194.562,594.385 189.249,582.517 186.321 C 576.996 184.958,575.065 184.891,570.541 185.903 C 560.275 188.201,552.122 196.672,551.229 205.970 C 550.624 212.261,551.365 215.092,554.630 218.972 C 560.341 225.759,571.140 228.974,588.434 229.036 L 598.500 229.072 595.793 231.286 C 591.722 234.616,560.686 253.911,542.001 264.728 C 512.879 281.588,480.295 304.922,465.693 319.375 C 454.346 330.606,414.753 377.926,402.184 395.279 C 377.814 428.923,362.418 455.636,355.374 476.500 C 351.528 487.890,350.831 505.794,353.847 515.722 C 356.448 524.287,362.187 533.278,368.589 538.821 C 380.205 548.878,401.785 556.024,426.755 558.082 C 434.315 558.705,440.597 559.301,440.717 559.407 C 440.836 559.513,438.469 564.302,435.458 570.050 C 410.848 617.024,408.307 623.632,395.864 673.000 C 389.224 699.350,382.582 724.491,377.444 742.725 C 373.845 755.501,373.177 761.777,375.200 763.800 C 378.088 766.688,381.973 764.750,395.302 753.777 C 400.509 749.490,403.000 748.098,403.000 749.476 C 403.000 751.137,393.288 780.700,389.195 791.500 C 381.853 810.871,376.374 822.362,358.393 856.108 C 349.422 872.942,340.538 890.267,338.650 894.608 C 296.346 991.869,280.982 1038.476,263.526 1122.500 C 251.960 1178.167,242.007 1229.760,238.475 1252.343 C 231.650 1295.991,226.093 1352.791,225.350 1386.500 C 224.891 1407.326,225.093 1412.386,226.880 1424.760 C 229.177 1440.661,230.015 1443.000,233.413 1443.000 C 238.209 1443.000,238.491 1441.178,236.166 1425.212 C 232.144 1397.590,232.249 1386.920,237.057 1334.500 C 243.161 1267.941,247.763 1239.906,271.361 1125.500 C 276.012 1102.950,281.235 1078.875,282.968 1072.000 C 287.307 1054.779,302.155 1005.760,306.896 993.000 C 317.449 964.599,330.534 932.477,346.207 896.500 C 349.945 887.920,365.273 859.025,366.095 859.010 C 366.422 859.005,368.635 864.063,371.013 870.250 C 381.152 896.633,385.112 906.266,388.978 913.956 C 391.234 918.442,397.358 931.361,402.588 942.665 C 417.548 974.996,428.705 996.668,432.626 1001.007 C 435.599 1004.298,436.885 1005.000,439.942 1005.000 C 444.532 1005.000,447.309 1002.266,449.085 996.000 C 449.787 993.525,450.464 991.353,450.591 991.173 C 450.717 990.993,457.499 994.647,465.660 999.293 C 484.695 1010.127,487.330 1011.432,506.266 1019.393 C 533.838 1030.986,556.104 1038.579,572.750 1042.066 C 575.638 1042.671,578.000 1043.615,578.000 1044.165 C 578.000 1044.715,581.806 1049.120,586.457 1053.956 C 592.535 1060.273,598.767 1068.621,608.606 1083.623 C 624.936 1108.525,633.284 1119.970,645.262 1133.883 C 656.357 1146.770,665.588 1159.220,674.638 1173.500 C 678.471 1179.550,685.569 1190.125,690.411 1197.000 C 701.714 1213.050,705.467 1220.625,712.994 1242.577 C 717.959 1257.057,722.439 1267.122,736.320 1294.973 C 763.296 1349.102,778.138 1372.357,800.750 1395.927 C 805.891 1401.285,806.001 1401.525,806.026 1407.450 C 806.086 1421.681,815.409 1496.727,817.744 1501.785 C 819.516 1505.622,821.979 1507.252,824.054 1505.960 C 826.463 1504.461,825.555 1486.216,821.640 1457.473 C 815.246 1410.536,814.678 1387.828,818.990 1351.500 C 822.169 1324.708,824.580 1312.095,833.062 1277.872 C 843.118 1237.301,846.282 1226.070,855.985 1196.500 C 866.049 1165.832,870.768 1150.527,876.493 1130.000 C 879.023 1120.925,883.973 1104.725,887.491 1094.000 C 900.489 1054.379,906.000 1031.322,906.000 1016.557 L 906.000 1008.215 914.750 1000.913 C 919.563 996.896,930.475 987.025,939.000 978.977 C 947.525 970.930,958.967 960.665,964.427 956.168 L 974.355 947.991 975.585 951.570 C 976.980 955.627,976.759 955.344,979.727 956.888 C 982.389 958.272,986.498 956.817,993.464 952.025 C 1007.969 942.045,1017.257 926.679,1022.985 903.185 L 1025.256 893.871 1028.224 896.685 C 1029.856 898.233,1033.511 902.648,1036.346 906.495 C 1039.181 910.342,1048.967 923.396,1058.093 935.503 C 1096.862 986.931,1137.017 1041.826,1143.677 1052.500 C 1151.211 1064.576,1181.448 1116.328,1191.760 1134.797 L 1200.859 1151.094 1199.385 1154.620 C 1197.288 1159.639,1198.338 1162.195,1202.335 1161.807 C 1205.386 1161.511,1205.939 1160.652,1217.668 1138.000 C 1224.360 1125.075,1231.968 1110.675,1234.575 1106.000 C 1239.863 1096.514,1264.184 1059.028,1265.061 1059.011 C 1265.370 1059.005,1266.879 1064.737,1268.415 1071.750 C 1274.031 1097.398,1280.928 1114.412,1294.482 1136.048 C 1309.735 1160.395,1327.104 1180.669,1342.925 1192.592 C 1361.227 1206.384,1386.037 1216.493,1399.964 1215.834 C 1403.836 1215.650,1407.003 1215.520,1407.002 1215.545 C 1406.872 1218.142,1391.923 1287.487,1389.565 1296.435 C 1382.679 1322.558,1373.405 1344.952,1362.738 1361.213 C 1356.942 1370.049,1339.550 1389.683,1328.934 1399.374 C 1321.242 1406.397,1283.396 1436.784,1269.942 1446.740 C 1241.266 1467.962,1197.044 1493.968,1180.500 1499.340 C 1172.817 1501.835,1150.281 1506.694,1142.869 1507.454 L 1136.238 1508.134 1124.057 1484.406 C 1104.697 1446.694,1098.087 1435.885,1060.375 1380.277 C 1031.914 1338.311,1030.689 1335.409,1023.523 1293.000 C 1014.809 1241.437,1001.771 1185.279,993.603 1164.130 C 985.824 1143.987,966.061 1104.711,953.611 1084.654 C 946.296 1072.869,943.667 1069.807,941.557 1070.617 C 938.093 1071.946,938.735 1073.435,959.188 1111.500 C 969.012 1129.783,981.109 1156.619,986.459 1172.000 C 994.078 1193.901,1006.142 1247.456,1012.476 1287.500 C 1018.449 1325.255,1020.607 1333.619,1028.145 1348.232 C 1030.491 1352.779,1043.715 1373.375,1057.532 1394.000 C 1094.492 1449.172,1097.732 1454.752,1130.406 1519.500 C 1148.798 1555.945,1150.438 1558.371,1154.440 1555.050 C 1157.389 1552.603,1156.155 1547.787,1148.789 1532.988 C 1144.822 1525.019,1141.410 1518.162,1141.205 1517.750 C 1141.001 1517.337,1142.146 1517.000,1143.750 1517.000 C 1147.937 1517.000,1176.191 1510.520,1184.746 1507.597 C 1205.737 1500.427,1248.563 1474.952,1281.500 1450.044 C 1319.990 1420.937,1336.162 1407.125,1352.464 1389.433 C 1370.142 1370.247,1376.647 1360.410,1385.829 1338.978 C 1395.210 1317.080,1400.995 1296.585,1409.391 1255.500 C 1411.864 1243.400,1415.917 1224.275,1418.398 1213.000 C 1424.415 1185.653,1430.482 1152.226,1433.099 1132.000 C 1435.498 1113.459,1435.329 1094.818,1432.483 1064.000 C 1428.679 1022.821,1425.281 1009.851,1406.540 965.000 C 1396.246 940.364,1391.756 926.578,1388.051 908.228 C 1384.810 892.181,1382.394 884.696,1377.001 873.987 C 1366.995 854.118,1361.187 848.971,1299.460 805.260 C 1290.087 798.623,1278.612 790.188,1273.960 786.516 C 1269.307 782.844,1263.427 778.491,1260.893 776.844 L 1256.286 773.849 1262.052 761.174 C 1265.224 754.203,1269.705 742.875,1272.010 736.000 C 1281.730 707.012,1284.702 699.504,1294.005 680.424 C 1299.389 669.382,1304.794 658.026,1306.015 655.188 C 1307.236 652.349,1308.599 650.252,1309.045 650.528 C 1309.491 650.804,1310.133 650.158,1310.471 649.092 C 1310.809 648.027,1312.806 645.601,1314.909 643.701 C 1319.599 639.464,1330.205 626.591,1335.672 618.500 C 1345.442 604.041,1349.386 592.838,1348.851 581.068 C 1348.556 574.581,1348.017 572.562,1345.489 568.473 C 1341.616 562.208,1333.698 555.779,1326.573 553.113 C 1300.605 543.397,1285.025 557.888,1271.033 604.770 C 1268.692 612.616,1267.013 619.942,1267.303 621.050 C 1267.624 622.277,1265.765 627.455,1262.552 634.283 C 1259.650 640.452,1255.116 650.892,1252.477 657.483 C 1249.723 664.359,1246.079 671.489,1243.926 674.213 C 1238.947 680.512,1231.227 694.114,1224.061 709.212 C 1217.287 723.486,1202.447 758.372,1201.436 762.399 C 1200.875 764.633,1200.323 765.047,1198.514 764.593 C 1184.894 761.174,1168.000 762.574,1168.000 767.121 C 1168.000 769.315,1177.800 780.278,1183.508 784.468 L 1189.830 789.109 1186.606 794.805 C 1184.007 799.398,1181.017 804.376,1179.379 806.840 C 1179.255 807.027,1174.757 808.032,1169.383 809.072 C 1157.679 811.339,1144.882 815.465,1141.789 817.969 C 1139.795 819.585,1139.690 820.053,1140.844 822.209 C 1142.266 824.865,1154.464 833.347,1162.750 837.440 C 1165.638 838.867,1168.000 840.194,1168.000 840.390 C 1168.000 840.586,1167.024 842.940,1165.832 845.623 C 1164.639 848.305,1163.397 851.784,1163.071 853.354 C 1162.516 856.026,1161.869 856.361,1152.989 858.580 C 1140.570 861.683,1128.103 867.992,1121.863 874.331 C 1119.188 877.048,1117.000 880.062,1117.000 881.029 C 1117.000 883.017,1116.639 882.843,1131.500 888.027 C 1148.552 893.974,1150.294 894.826,1149.443 896.800 C 1147.458 901.405,1141.610 919.567,1139.397 928.000 C 1134.501 946.651,1135.289 959.031,1141.471 960.582 C 1145.244 961.529,1149.856 960.347,1153.635 957.465 C 1159.808 952.757,1170.652 935.150,1177.500 918.719 L 1180.326 911.938 1183.256 914.719 C 1186.882 918.160,1190.195 924.559,1194.147 935.756 C 1198.398 947.801,1204.034 959.687,1208.872 966.811 C 1217.953 980.184,1231.983 992.805,1248.715 1002.652 C 1257.051 1007.558,1276.934 1022.466,1278.482 1024.971 C 1278.780 1025.454,1274.820 1031.396,1269.680 1038.175 C 1258.858 1052.450,1237.825 1083.225,1229.478 1097.000 C 1226.312 1102.225,1219.908 1113.836,1215.247 1122.803 C 1210.586 1131.770,1206.659 1138.970,1206.520 1138.803 C 1206.382 1138.636,1203.210 1132.875,1199.473 1126.000 C 1195.735 1119.125,1188.306 1106.075,1182.963 1097.000 C 1177.621 1087.925,1169.302 1073.750,1164.477 1065.500 C 1155.226 1049.681,1147.235 1037.407,1138.114 1025.000 C 1085.752 953.781,1044.922 900.767,1034.527 890.500 L 1027.439 883.500 1031.171 860.500 C 1035.959 830.986,1037.002 817.552,1036.990 785.550 C 1036.977 752.203,1034.724 721.256,1030.132 691.364 L 1029.343 686.228 1036.921 685.570 C 1041.090 685.207,1054.625 684.495,1067.000 683.985 C 1098.294 682.698,1105.764 680.801,1109.418 673.216 C 1111.921 668.021,1111.446 662.916,1108.020 658.186 C 1102.218 650.177,1099.003 649.713,1075.130 653.441 C 1066.534 654.783,1054.100 656.368,1047.500 656.962 C 1040.900 657.556,1033.906 658.203,1031.958 658.398 L 1028.416 658.754 1021.594 620.627 C 1017.842 599.657,1014.155 579.800,1013.401 576.500 C 1010.979 565.904,1010.928 566.000,1018.977 566.000 C 1025.237 566.000,1026.115 565.754,1027.526 563.601 C 1029.017 561.325,1028.834 560.569,1023.943 548.851 C 1006.754 507.671,994.839 482.011,988.871 473.320 C 987.292 471.021,986.000 468.883,986.000 468.570 C 986.000 468.256,988.446 468.000,991.435 468.000 C 998.539 468.000,1001.555 466.760,1003.472 463.054 C 1004.937 460.221,1004.873 459.360,1002.498 449.990 C 999.136 436.731,997.430 432.467,987.840 413.361 L 979.740 397.221 987.790 389.267 C 997.233 379.938,1002.807 371.725,1006.876 361.144 C 1011.359 349.488,1012.333 342.773,1011.722 327.749 C 1010.677 302.056,1003.553 286.115,986.852 272.096 C 977.677 264.395,970.659 260.370,963.000 258.418 C 958.623 257.302,955.030 255.556,952.000 253.073 C 949.525 251.045,944.125 246.968,940.000 244.013 C 925.940 233.940,909.510 220.254,904.361 214.327 C 897.188 206.072,891.495 197.645,882.669 182.219 C 874.025 167.113,868.112 159.029,861.358 153.083 C 852.410 145.208,839.741 139.597,823.850 136.474 C 814.082 134.553,787.452 133.710,778.000 135.021 M817.176 143.470 C 834.131 146.026,845.195 150.670,854.421 159.102 C 861.378 165.460,866.474 172.605,875.896 189.213 C 891.274 216.320,903.066 228.730,935.500 251.938 C 938.800 254.299,943.759 258.542,946.520 261.366 C 949.281 264.190,954.100 268.424,957.229 270.776 C 963.266 275.315,971.696 285.810,973.665 291.237 C 976.489 299.025,974.913 304.060,967.517 310.877 C 961.477 316.445,943.331 328.233,936.700 330.898 C 926.893 334.838,834.018 357.485,807.000 362.525 C 802.875 363.294,787.575 365.763,773.000 368.011 C 721.345 375.978,697.198 381.667,666.000 393.220 C 641.428 402.320,627.170 410.306,571.322 446.254 C 546.642 462.140,533.734 469.175,518.500 475.043 C 512.450 477.373,500.300 482.113,491.500 485.575 C 482.700 489.038,468.975 493.735,461.000 496.013 C 453.025 498.290,445.150 500.754,443.500 501.487 C 440.806 502.684,432.624 504.370,390.108 512.488 C 377.495 514.897,373.409 516.809,375.789 519.189 C 376.450 519.850,378.906 520.279,381.246 520.141 C 388.357 519.724,418.850 514.327,429.838 511.541 C 435.523 510.100,440.923 509.146,441.838 509.422 C 442.752 509.698,447.301 510.389,451.947 510.958 C 456.592 511.528,460.726 512.332,461.133 512.747 C 462.280 513.914,458.465 524.198,451.488 538.749 C 443.952 554.467,443.768 554.599,431.610 552.971 C 391.688 547.627,371.472 537.946,362.689 519.968 C 351.174 496.397,360.939 466.556,397.035 415.000 C 412.179 393.371,418.297 385.553,442.819 356.500 C 471.861 322.091,479.001 315.218,502.000 299.532 C 508.325 295.218,517.550 288.884,522.500 285.456 C 527.450 282.027,540.500 274.053,551.500 267.735 C 585.626 248.134,610.780 231.548,635.857 212.111 C 664.004 190.295,697.690 169.863,726.196 157.318 C 755.230 144.540,789.584 139.311,817.176 143.470 M585.516 196.092 C 591.995 198.516,603.181 205.907,610.817 212.810 L 616.135 217.617 609.029 222.342 C 602.819 226.472,601.741 226.884,600.472 225.615 C 598.608 223.751,595.847 223.198,582.970 222.108 C 570.708 221.070,563.836 218.418,560.889 213.586 C 558.573 209.787,558.508 206.839,560.643 202.340 C 564.459 194.299,574.190 191.854,585.516 196.092 M986.339 284.999 C 992.534 291.691,996.859 299.996,999.620 310.500 C 1001.035 315.885,1001.443 320.961,1001.388 332.500 C 1001.324 345.933,1001.040 348.336,998.668 355.500 C 997.211 359.900,994.644 365.883,992.963 368.796 C 990.160 373.654,976.597 389.000,975.107 389.000 C 974.755 389.000,972.936 386.413,971.064 383.250 C 962.264 368.381,954.494 357.919,940.294 341.815 C 938.941 340.281,939.284 339.890,944.154 337.422 C 957.035 330.895,974.188 317.654,979.436 310.187 C 981.906 306.672,982.508 304.695,982.827 299.048 C 983.291 290.849,982.203 287.171,976.879 278.935 L 972.867 272.726 976.821 275.858 C 978.996 277.581,983.279 281.694,986.339 284.999 M932.466 344.892 C 932.796 345.933,937.505 352.310,942.931 359.063 C 960.255 380.629,982.236 420.232,989.995 443.863 C 992.198 450.571,994.000 456.887,994.000 457.900 C 994.000 459.453,992.869 459.853,986.781 460.453 C 982.810 460.844,978.760 461.593,977.781 462.117 C 974.976 463.619,975.670 467.426,980.057 474.592 C 982.288 478.238,983.965 481.369,983.783 481.550 C 983.602 481.731,981.439 480.499,978.977 478.810 C 971.718 473.834,958.493 467.998,950.728 466.344 C 932.722 462.510,908.352 468.639,891.349 481.278 C 881.113 488.886,871.769 501.491,867.463 513.500 C 866.476 516.250,865.377 518.844,865.020 519.265 C 864.663 519.685,862.375 518.976,859.935 517.687 L 855.500 515.345 849.897 497.423 C 843.610 477.310,840.398 468.984,832.582 452.539 C 824.455 435.440,820.152 432.000,806.895 432.000 C 802.721 432.000,795.094 434.840,790.168 438.228 C 782.612 443.427,772.092 459.647,765.996 475.500 C 764.727 478.800,763.334 481.901,762.902 482.392 C 762.451 482.904,758.793 482.372,754.308 481.141 C 750.014 479.963,744.553 478.661,742.173 478.249 C 737.873 477.505,737.826 477.450,734.509 469.450 C 725.289 447.211,714.514 436.448,697.907 432.887 C 681.860 429.445,665.196 438.617,661.934 452.687 C 659.850 461.674,665.781 477.223,675.241 487.574 L 680.099 492.889 677.667 494.482 C 671.587 498.467,659.255 517.620,656.357 527.583 L 654.587 533.667 649.544 533.261 C 640.645 532.545,602.398 527.049,571.000 521.974 C 523.943 514.368,503.172 511.703,480.750 510.393 C 469.661 509.745,469.004 509.588,469.070 507.603 C 469.234 502.718,470.486 501.779,482.560 497.495 C 502.837 490.300,528.658 480.257,537.278 476.212 C 546.745 471.770,558.015 464.996,595.000 441.518 C 609.575 432.265,626.815 421.644,633.310 417.916 C 654.013 406.032,676.929 397.397,709.593 389.172 C 732.642 383.368,733.794 383.140,761.000 378.984 C 802.618 372.627,813.122 370.725,841.500 364.406 C 857.450 360.854,883.550 354.634,899.500 350.583 C 915.450 346.532,929.257 343.168,930.183 343.108 C 931.108 343.049,932.135 343.851,932.466 344.892 M892.842 412.351 C 881.550 415.485,865.384 429.122,856.191 443.269 C 849.922 452.917,848.662 456.652,849.195 464.016 C 850.059 475.965,857.966 482.346,871.934 482.369 C 880.955 482.384,888.313 479.745,903.000 471.227 C 919.534 461.637,925.553 453.257,925.430 440.000 C 925.375 433.991,924.820 431.371,922.640 426.818 C 916.919 414.870,904.861 409.016,892.842 412.351 M816.582 438.050 C 818.406 439.178,820.785 441.541,821.869 443.300 C 826.591 450.971,836.421 476.465,843.459 499.292 C 845.459 505.778,847.324 511.681,847.604 512.410 C 848.005 513.454,845.292 513.845,834.806 514.252 C 819.603 514.842,811.968 516.784,800.250 523.044 L 793.000 526.917 792.999 520.709 C 792.998 509.537,785.061 496.903,773.295 489.341 L 768.091 485.997 770.620 479.248 C 778.004 459.548,785.675 447.760,795.514 440.990 C 803.009 435.834,811.155 434.697,816.582 438.050 M867.777 448.557 C 872.357 451.764,869.426 461.000,863.829 461.000 C 858.341 461.000,856.057 453.697,860.174 449.314 C 862.719 446.605,864.709 446.407,867.777 448.557 M682.051 467.051 C 684.317 469.317,683.959 472.588,681.208 474.750 C 676.219 478.672,670.060 471.083,674.571 466.571 C 676.726 464.417,679.602 464.602,682.051 467.051 M953.068 473.596 C 961.427 476.053,971.765 481.888,978.023 487.682 C 998.999 507.102,997.514 546.164,975.207 561.760 C 967.681 567.023,952.827 574.413,945.489 576.546 C 938.358 578.619,924.154 578.126,916.500 575.540 C 898.580 569.486,886.207 560.059,880.344 547.994 C 875.864 538.775,874.705 531.910,875.567 519.717 C 876.243 510.152,876.537 509.108,880.168 503.355 C 888.887 489.541,904.432 478.413,921.111 474.045 C 930.508 471.584,945.505 471.374,953.068 473.596 M754.750 487.518 C 757.638 488.376,760.000 489.593,760.000 490.223 C 760.000 490.853,757.298 499.569,753.997 509.591 C 746.499 532.350,743.172 545.492,738.959 569.000 C 737.135 579.175,735.066 588.141,734.362 588.924 C 733.459 589.928,729.893 590.478,722.256 590.793 C 709.440 591.321,700.531 589.322,687.324 582.956 C 666.483 572.909,657.795 553.884,663.895 531.649 C 667.577 518.229,674.971 505.401,682.006 500.227 L 686.058 497.247 691.774 499.570 C 702.852 504.072,715.826 503.657,726.000 498.474 C 728.610 497.144,732.390 493.821,735.000 490.563 L 739.500 484.945 744.500 485.452 C 747.250 485.731,751.862 486.661,754.750 487.518 M778.482 501.084 C 785.935 509.052,787.499 513.043,787.464 524.000 C 787.430 534.608,785.842 540.305,778.878 554.805 C 773.387 566.239,763.765 576.339,753.055 581.910 C 744.289 586.471,743.022 586.783,743.557 584.250 C 743.761 583.288,745.734 573.050,747.941 561.500 C 752.085 539.820,755.077 528.013,762.186 505.276 L 766.321 492.053 770.235 494.252 C 772.388 495.462,776.099 498.537,778.482 501.084 M495.200 518.515 C 512.771 520.202,539.195 523.822,561.000 527.528 C 584.812 531.576,611.220 535.633,633.250 538.628 L 654.000 541.448 654.000 547.635 C 654.000 559.729,659.657 571.910,669.299 580.579 C 675.925 586.536,692.157 594.393,703.242 597.009 C 712.088 599.096,723.663 599.717,730.347 598.463 C 732.356 598.086,734.000 598.008,734.000 598.289 C 734.000 598.571,733.117 604.808,732.037 612.151 C 727.456 643.304,726.808 670.318,730.378 681.310 C 735.522 697.148,746.354 706.992,763.570 711.476 C 768.215 712.686,770.453 714.079,775.418 718.846 C 785.215 728.254,795.443 732.407,808.500 732.280 C 834.749 732.026,866.700 715.076,878.500 695.146 C 880.496 691.775,882.336 689.902,884.000 689.549 C 894.629 687.295,914.223 686.566,965.076 686.534 L 1020.653 686.500 1020.828 692.799 C 1020.924 696.264,1021.895 706.389,1022.985 715.299 C 1025.918 739.270,1026.968 758.400,1026.976 788.000 C 1026.984 819.820,1026.169 829.987,1021.033 862.100 C 1014.698 901.712,1010.058 917.931,1001.226 931.345 C 997.512 936.987,987.117 946.997,984.969 946.999 C 984.677 947.000,983.777 945.098,982.969 942.774 C 981.225 937.757,977.971 935.680,974.137 937.138 C 970.072 938.684,948.962 956.271,933.645 970.874 C 921.840 982.128,919.490 983.965,918.923 982.383 C 918.553 981.347,917.238 977.148,916.003 973.051 C 913.304 964.102,909.791 960.000,904.826 960.000 C 898.403 960.000,872.567 979.200,849.324 1001.247 C 834.507 1015.301,833.177 1015.884,821.726 1013.354 C 809.646 1010.685,804.192 1010.900,799.379 1014.236 C 797.208 1015.741,793.676 1019.341,791.531 1022.236 C 783.934 1032.487,782.083 1034.000,777.142 1034.000 C 773.732 1034.000,770.174 1032.737,762.088 1028.654 C 756.265 1025.713,750.217 1022.993,748.649 1022.610 C 744.335 1021.553,739.497 1023.559,728.500 1030.963 C 714.872 1040.138,712.235 1041.428,709.576 1040.217 C 708.396 1039.679,704.560 1036.935,701.051 1034.119 C 693.582 1028.125,691.009 1027.762,685.304 1031.895 C 678.495 1036.827,675.404 1038.000,669.209 1038.000 C 661.503 1038.000,654.345 1034.408,643.000 1024.848 C 628.269 1012.435,618.690 1007.108,613.459 1008.421 C 610.265 1009.223,607.745 1014.294,604.132 1027.190 L 601.243 1037.500 596.372 1037.157 C 585.709 1036.406,557.888 1029.712,541.421 1023.935 C 528.579 1019.429,500.002 1007.503,489.500 1002.267 C 477.070 996.070,455.047 983.884,454.408 982.851 C 454.119 982.383,452.591 982.000,451.014 982.000 C 447.629 982.000,444.922 985.018,442.412 991.592 C 441.472 994.053,440.207 995.922,439.601 995.743 C 437.620 995.161,396.695 911.680,387.518 889.500 C 385.014 883.450,379.975 872.338,376.319 864.808 L 369.672 851.115 378.763 832.808 C 388.426 813.350,393.689 800.129,401.865 774.780 C 406.592 760.126,410.557 741.710,409.391 739.824 C 407.631 736.975,399.129 741.197,388.155 750.369 C 383.071 754.619,382.617 754.756,383.603 751.750 C 385.436 746.158,394.831 710.393,403.107 677.504 C 416.812 623.044,418.663 618.055,441.780 573.270 C 457.566 542.689,463.012 531.134,465.594 522.750 L 467.365 517.000 473.433 517.003 C 476.770 517.005,486.565 517.685,495.200 518.515 M849.210 521.518 C 850.150 521.884,853.176 526.406,855.933 531.566 C 862.613 544.067,873.451 561.245,878.818 567.836 C 881.207 570.770,882.977 573.356,882.750 573.583 C 882.524 573.809,879.675 573.498,876.419 572.890 C 865.205 570.798,845.795 573.812,830.153 580.075 C 821.685 583.466,806.697 592.983,804.545 596.335 C 802.708 599.197,804.576 611.014,808.766 623.035 C 812.477 633.685,814.831 638.386,821.524 648.521 C 836.350 670.968,854.353 677.892,873.530 668.525 C 880.890 664.930,886.032 660.103,892.371 650.837 C 895.467 646.312,897.999 643.035,897.997 643.555 C 897.991 645.981,892.878 663.218,890.726 668.067 C 884.865 681.274,879.509 683.770,854.522 684.938 C 834.659 685.867,828.470 687.528,811.691 696.435 C 796.636 704.428,789.325 706.353,776.100 705.808 C 766.756 705.423,764.537 704.972,758.816 702.295 C 746.560 696.559,740.295 688.598,737.440 675.131 C 735.608 666.487,735.624 645.041,737.474 628.480 C 739.049 614.386,741.697 595.915,742.192 595.564 C 742.362 595.444,745.961 593.960,750.191 592.266 C 760.373 588.188,767.567 583.287,774.941 575.404 C 783.170 566.607,789.764 552.712,791.533 540.439 C 791.924 537.722,792.977 534.664,793.872 533.642 C 797.372 529.647,811.541 523.810,823.500 521.437 C 830.327 520.082,845.641 520.130,849.210 521.518 M1011.588 542.824 C 1015.115 551.252,1018.000 558.339,1018.000 558.574 C 1018.000 558.808,1015.836 559.000,1013.191 559.000 C 1010.546 559.000,1007.526 559.626,1006.479 560.392 C 1004.677 561.710,1004.638 562.389,1005.745 573.142 C 1006.663 582.059,1017.331 646.785,1019.500 656.604 C 1019.940 658.596,1019.448 658.743,1010.232 659.384 C 991.942 660.656,946.091 665.641,904.019 670.930 C 899.904 671.448,896.445 671.778,896.331 671.664 C 896.218 671.551,897.434 667.757,899.035 663.234 C 902.443 653.603,905.526 638.790,906.471 627.500 C 907.810 611.518,903.370 591.525,895.925 580.005 L 892.183 574.215 900.341 578.010 C 916.331 585.446,928.204 587.815,940.642 586.051 C 949.099 584.851,953.149 583.456,963.986 578.007 C 976.591 571.670,984.507 566.367,989.021 561.238 C 996.460 552.787,1001.906 538.028,1002.024 526.000 L 1002.078 520.500 1003.627 524.000 C 1004.479 525.925,1008.061 534.396,1011.588 542.824 M867.000 532.500 C 867.000 534.975,866.784 537.000,866.520 537.000 C 866.019 537.000,862.000 529.479,862.000 528.540 C 862.000 528.243,863.125 528.000,864.500 528.000 C 866.796 528.000,867.000 528.367,867.000 532.500 M1322.357 559.606 C 1325.072 560.531,1329.390 563.331,1332.537 566.208 C 1338.780 571.914,1341.616 578.879,1340.473 585.696 C 1339.782 589.812,1336.057 602.000,1335.489 602.000 C 1335.298 602.000,1332.896 599.646,1330.151 596.768 C 1325.497 591.889,1324.775 591.502,1319.426 591.018 C 1313.775 590.508,1313.672 590.442,1312.342 586.500 C 1311.600 584.300,1309.793 581.443,1308.326 580.152 C 1305.908 578.022,1305.070 577.867,1299.329 578.481 C 1292.404 579.223,1291.185 578.382,1292.367 573.675 C 1293.219 570.277,1299.723 562.140,1303.356 559.924 C 1307.299 557.520,1315.818 557.378,1322.357 559.606 M882.205 582.500 C 885.343 583.510,887.693 584.688,887.427 585.118 C 887.162 585.547,881.670 585.641,875.222 585.326 C 868.100 584.978,859.968 585.238,854.500 585.989 C 842.354 587.657,840.762 587.694,840.287 586.318 C 839.678 584.554,842.966 583.174,851.678 581.537 C 861.511 579.690,874.779 580.109,882.205 582.500 M1289.907 586.603 C 1292.552 587.923,1293.897 588.011,1297.503 587.103 C 1299.914 586.497,1302.130 586.000,1302.428 586.000 C 1302.727 586.000,1303.472 587.988,1304.084 590.418 C 1305.687 596.784,1308.959 599.479,1315.197 599.569 C 1319.890 599.637,1320.521 599.960,1324.368 604.263 C 1326.641 606.804,1329.310 609.022,1330.300 609.192 C 1331.772 609.444,1330.250 612.410,1321.934 625.500 C 1316.344 634.300,1311.653 641.631,1311.510 641.792 C 1311.367 641.952,1311.250 639.219,1311.250 635.718 C 1311.250 624.031,1304.562 614.729,1293.878 611.556 C 1287.617 609.697,1285.661 609.673,1280.838 611.396 C 1278.354 612.283,1277.284 612.349,1277.510 611.602 C 1281.797 597.437,1285.986 585.000,1286.468 585.000 C 1286.592 585.000,1288.139 585.722,1289.907 586.603 M1295.001 621.250 C 1301.285 625.540,1303.705 634.537,1300.878 643.101 C 1299.845 646.227,1284.228 679.959,1283.367 680.922 C 1282.328 682.084,1268.631 678.462,1262.304 675.352 L 1255.107 671.815 1257.660 666.157 C 1259.064 663.046,1262.446 655.124,1265.174 648.553 C 1270.616 635.447,1275.765 625.997,1279.776 621.750 C 1283.198 618.128,1290.094 617.901,1295.001 621.250 M1090.000 656.535 C 1090.000 656.830,1089.227 658.250,1088.282 659.692 C 1086.648 662.186,1085.914 671.272,1087.046 674.993 C 1087.426 676.243,1085.299 676.603,1074.000 677.199 C 1066.575 677.591,1051.950 678.448,1041.500 679.102 C 1031.050 679.757,997.975 680.438,968.000 680.616 C 926.209 680.863,910.497 681.305,900.624 682.510 C 893.543 683.375,887.622 683.951,887.467 683.791 C 887.313 683.631,888.607 681.873,890.343 679.884 L 893.500 676.269 918.500 673.587 C 932.250 672.113,949.125 670.256,956.000 669.462 C 980.690 666.609,1009.784 664.000,1016.898 664.000 C 1028.477 664.000,1059.250 661.044,1073.965 658.518 C 1089.312 655.883,1090.000 655.798,1090.000 656.535 M1102.548 659.646 C 1107.601 665.099,1104.062 675.499,1097.575 674.259 C 1092.615 673.311,1091.911 666.964,1096.019 660.210 C 1098.389 656.312,1099.378 656.226,1102.548 659.646 M1273.000 688.182 C 1276.575 688.845,1279.633 689.471,1279.795 689.573 C 1279.958 689.674,1278.545 693.524,1276.655 698.129 C 1274.766 702.733,1270.197 715.275,1266.503 726.000 C 1262.809 736.725,1257.200 750.942,1254.037 757.593 L 1248.288 769.686 1240.307 769.224 C 1233.771 768.846,1231.496 769.129,1227.734 770.793 L 1223.142 772.825 1215.321 769.688 C 1211.019 767.963,1207.397 766.511,1207.270 766.463 C 1207.144 766.414,1209.020 761.903,1211.438 756.437 C 1213.856 750.972,1218.374 740.471,1221.477 733.103 C 1228.027 717.549,1238.719 695.628,1244.788 685.311 L 1249.016 678.123 1257.758 682.550 C 1262.742 685.074,1269.294 687.495,1273.000 688.182 M871.105 694.348 C 857.884 713.564,823.717 728.647,801.302 725.162 C 793.845 724.002,784.967 720.142,779.578 715.715 L 776.657 713.315 784.078 712.740 C 793.222 712.033,803.489 708.433,816.000 701.546 C 831.412 693.063,835.532 691.951,855.000 691.018 C 862.975 690.636,870.534 690.251,871.798 690.162 C 874.076 690.001,874.070 690.038,871.105 694.348 M1192.688 770.542 C 1201.242 772.477,1214.818 776.897,1215.475 777.960 C 1215.748 778.401,1214.645 780.430,1213.025 782.469 C 1211.405 784.507,1209.806 787.036,1209.472 788.088 C 1208.604 790.824,1207.395 790.538,1198.551 785.498 C 1189.544 780.365,1182.905 775.420,1179.913 771.617 L 1177.855 769.000 1181.865 769.000 C 1184.071 769.000,1188.941 769.694,1192.688 770.542 M1249.500 779.984 C 1252.800 781.520,1260.675 786.936,1267.000 792.018 C 1273.325 797.101,1290.200 809.593,1304.500 819.778 C 1345.658 849.091,1353.964 855.898,1361.564 866.542 C 1370.504 879.061,1374.921 890.733,1379.528 914.000 C 1383.274 932.925,1385.857 940.413,1402.983 982.000 C 1416.791 1015.531,1420.902 1035.807,1424.068 1086.000 C 1425.307 1105.645,1424.871 1118.951,1422.429 1136.000 C 1420.995 1146.018,1411.477 1197.570,1410.381 1201.261 C 1408.925 1206.163,1397.758 1207.391,1386.355 1203.903 C 1377.372 1201.155,1361.712 1193.303,1352.465 1186.910 C 1338.151 1177.016,1317.899 1153.952,1303.369 1131.000 C 1290.153 1110.123,1285.647 1099.741,1278.415 1073.500 C 1275.838 1064.150,1273.254 1054.840,1272.674 1052.811 C 1271.663 1049.273,1271.855 1048.767,1277.342 1040.522 C 1280.490 1035.792,1283.517 1032.202,1284.070 1032.544 C 1284.624 1032.885,1286.466 1035.627,1288.164 1038.637 C 1290.817 1043.338,1291.622 1044.066,1293.876 1043.804 C 1296.283 1043.525,1296.496 1043.128,1296.452 1038.993 C 1296.414 1035.369,1295.555 1033.234,1292.063 1028.093 C 1289.675 1024.576,1285.646 1019.698,1283.111 1017.251 C 1276.777 1011.140,1261.022 999.617,1249.956 993.000 C 1239.411 986.695,1224.116 972.824,1217.526 963.588 C 1212.561 956.631,1208.233 947.531,1202.026 931.000 C 1196.243 915.601,1192.550 910.276,1181.570 901.509 C 1171.367 893.363,1169.962 891.921,1167.509 887.084 C 1164.049 880.260,1168.042 868.116,1175.619 862.417 C 1177.884 860.713,1183.734 858.064,1188.619 856.531 C 1196.857 853.945,1202.000 850.945,1202.000 848.728 C 1202.000 848.220,1199.775 845.711,1197.056 843.152 C 1187.981 834.612,1186.666 822.825,1194.269 818.155 C 1199.555 814.908,1209.742 811.933,1219.420 810.812 C 1229.050 809.696,1231.000 808.871,1231.000 805.913 C 1231.000 803.130,1227.845 801.994,1222.028 802.683 C 1216.150 803.379,1215.041 802.551,1215.015 797.446 C 1214.985 791.493,1225.593 778.792,1231.725 777.438 C 1233.251 777.101,1234.950 776.676,1235.500 776.494 C 1237.635 775.786,1243.763 777.314,1249.500 779.984 M1202.033 795.517 C 1205.365 797.205,1207.000 798.660,1207.000 799.935 C 1207.000 800.981,1207.253 802.495,1207.561 803.299 C 1208.384 805.444,1203.664 806.630,1195.987 806.208 L 1189.474 805.850 1192.475 799.425 C 1194.126 795.891,1195.834 793.000,1196.271 793.000 C 1196.709 793.000,1199.302 794.133,1202.033 795.517 M1183.883 818.473 C 1182.222 821.289,1181.897 823.283,1182.167 829.000 L 1182.500 836.054 1179.632 835.421 C 1172.749 833.904,1149.092 822.575,1150.294 821.372 C 1151.138 820.529,1178.505 815.116,1182.216 815.058 L 1185.933 815.000 1183.883 818.473 M1182.425 844.320 C 1185.684 844.997,1188.520 846.059,1188.726 846.679 C 1188.933 847.298,1186.887 848.541,1184.180 849.440 C 1181.472 850.340,1176.691 852.620,1173.555 854.509 C 1170.418 856.398,1167.998 857.594,1168.176 857.167 C 1172.196 847.535,1174.512 843.008,1175.400 843.044 C 1176.005 843.068,1179.166 843.642,1182.425 844.320 M1161.501 866.750 C 1158.527 874.052,1157.810 877.667,1158.180 883.482 L 1158.585 889.854 1155.043 888.314 C 1145.267 884.066,1139.936 882.059,1134.120 880.440 C 1128.260 878.808,1127.893 878.548,1129.620 877.250 C 1136.092 872.384,1153.793 865.255,1159.857 865.071 C 1161.718 865.015,1162.064 865.368,1161.501 866.750 M1163.500 900.028 C 1165.440 900.064,1167.868 901.291,1170.369 903.501 L 1174.238 906.918 1168.274 919.256 C 1159.944 936.488,1149.439 952.000,1146.099 952.000 C 1143.433 952.000,1146.602 931.433,1152.025 913.541 C 1153.032 910.219,1154.368 905.543,1154.994 903.150 C 1155.981 899.372,1156.417 898.878,1158.315 899.387 C 1159.517 899.709,1161.850 899.998,1163.500 900.028 M906.381 973.750 C 908.604 980.603,910.386 992.035,909.367 992.915 C 908.890 993.326,902.651 998.577,895.503 1004.582 C 873.813 1022.803,858.754 1036.890,830.500 1065.391 C 810.984 1085.078,802.065 1093.378,798.325 1095.335 C 790.348 1099.510,779.097 1102.000,768.217 1102.000 C 760.041 1102.000,757.314 1101.519,748.182 1098.463 C 732.778 1093.308,721.912 1087.011,692.766 1066.346 C 664.380 1046.221,651.930 1041.447,621.546 1039.034 C 613.871 1038.424,607.496 1037.829,607.378 1037.712 C 606.683 1037.016,614.676 1015.000,615.624 1015.000 C 617.169 1015.000,626.695 1022.075,638.388 1031.906 C 648.849 1040.701,654.694 1044.065,662.860 1045.989 C 672.421 1048.242,680.528 1046.230,686.500 1040.124 C 688.150 1038.436,690.026 1037.043,690.668 1037.028 C 691.311 1037.012,694.236 1039.076,697.168 1041.613 C 709.368 1052.169,713.716 1051.583,735.307 1036.466 C 739.893 1033.255,744.185 1031.000,745.709 1031.000 C 747.136 1031.000,751.723 1032.950,755.902 1035.334 C 766.306 1041.268,771.136 1043.000,777.286 1043.000 C 784.149 1043.000,788.439 1040.632,793.777 1033.897 C 804.505 1020.361,804.896 1019.999,808.820 1020.011 C 810.844 1020.017,814.750 1020.716,817.500 1021.565 C 824.958 1023.867,833.587 1023.733,839.230 1021.229 C 842.273 1019.879,848.158 1015.086,855.730 1007.792 C 862.204 1001.556,870.155 994.215,873.399 991.477 C 882.684 983.644,902.379 969.028,903.670 969.013 C 904.313 969.006,905.533 971.138,906.381 973.750 M899.374 1017.250 C 895.872 1036.997,887.267 1066.704,884.348 1069.125 C 883.436 1069.881,880.230 1074.325,877.222 1079.000 C 869.861 1090.442,860.712 1101.070,845.334 1116.043 C 828.085 1132.838,818.061 1139.382,799.500 1145.965 C 777.235 1153.862,756.147 1154.672,723.500 1148.881 C 694.671 1143.768,665.554 1132.331,652.929 1121.160 C 649.943 1118.518,645.998 1115.488,644.162 1114.428 C 640.099 1112.081,634.361 1104.512,617.093 1078.724 C 609.810 1067.848,601.064 1056.035,597.657 1052.474 C 594.120 1048.778,592.114 1046.007,592.981 1046.015 C 597.900 1046.066,625.943 1048.165,633.784 1049.071 C 650.858 1051.042,663.978 1057.019,686.593 1073.127 C 737.543 1109.419,758.206 1116.652,788.800 1108.905 C 804.530 1104.922,816.976 1095.411,839.000 1070.543 C 849.296 1058.917,897.412 1014.000,899.570 1014.000 C 899.779 1014.000,899.691 1015.462,899.374 1017.250 M872.532 1109.534 C 870.679 1115.565,867.294 1127.194,865.008 1135.376 C 859.990 1153.344,856.137 1163.611,852.933 1167.556 C 845.878 1176.239,836.134 1184.698,829.500 1187.897 C 819.109 1192.909,803.503 1198.940,795.002 1201.228 C 784.411 1204.079,759.909 1204.801,746.409 1202.658 C 727.013 1199.581,704.896 1191.253,695.354 1183.434 C 692.710 1181.267,686.932 1173.718,680.622 1164.185 C 674.913 1155.558,668.635 1146.490,666.672 1144.032 C 664.708 1141.575,663.261 1139.406,663.454 1139.213 C 663.648 1139.019,665.752 1139.853,668.131 1141.067 C 680.511 1147.383,704.653 1155.196,720.500 1158.016 C 756.203 1164.370,779.905 1163.516,802.869 1155.048 C 812.808 1151.384,823.800 1145.882,831.157 1140.890 C 838.281 1136.056,854.974 1120.453,866.557 1107.801 C 871.440 1102.467,875.541 1098.207,875.669 1098.335 C 875.796 1098.463,874.385 1103.502,872.532 1109.534 M508.610 1129.821 C 508.292 1130.336,507.585 1137.674,507.039 1146.129 C 505.698 1166.897,502.422 1210.248,499.984 1239.500 C 494.477 1305.551,494.034 1321.395,496.531 1363.000 C 499.750 1416.622,510.307 1496.081,519.515 1536.000 C 523.551 1553.499,528.928 1572.239,531.279 1577.000 C 533.146 1580.783,533.960 1581.500,536.391 1581.500 C 540.401 1581.500,541.724 1579.090,540.347 1574.293 C 539.748 1572.207,537.618 1564.875,535.614 1558.000 C 528.259 1532.776,521.449 1496.213,514.567 1445.000 C 508.657 1401.024,505.016 1353.713,505.024 1321.000 C 505.029 1302.757,505.620 1292.597,510.465 1227.500 C 513.777 1183.010,515.078 1152.659,514.215 1140.000 C 513.553 1130.272,513.342 1129.477,511.344 1129.193 C 510.159 1129.024,508.928 1129.307,508.610 1129.821 M848.741 1188.250 C 848.482 1188.938,845.697 1197.332,842.553 1206.905 C 837.371 1222.684,836.335 1224.940,831.464 1231.045 C 824.122 1240.247,820.153 1243.340,808.500 1248.945 C 792.325 1256.725,784.921 1258.508,769.000 1258.455 C 756.216 1258.413,755.036 1258.236,746.750 1255.111 C 738.516 1252.005,725.623 1243.865,723.811 1240.627 C 723.375 1239.847,721.615 1235.224,719.901 1230.354 C 716.571 1220.896,710.255 1207.572,706.804 1202.725 L 704.700 1199.770 707.100 1200.512 C 708.420 1200.920,710.625 1201.819,712.000 1202.511 C 717.087 1205.069,733.787 1209.848,743.000 1211.383 C 770.075 1215.893,788.829 1214.142,814.000 1204.753 C 827.596 1199.681,839.689 1193.758,844.041 1190.038 C 847.726 1186.888,849.513 1186.208,848.741 1188.250 M1347.366 1230.431 C 1344.181 1233.005,1341.000 1239.345,1341.000 1243.119 C 1341.000 1246.672,1344.199 1252.150,1347.420 1254.114 C 1359.127 1261.253,1373.200 1247.040,1366.044 1235.304 C 1363.462 1231.070,1360.318 1229.132,1354.935 1228.455 C 1351.196 1227.985,1350.008 1228.295,1347.366 1230.431 M1357.923 1235.589 C 1363.495 1240.277,1361.268 1249.000,1354.500 1249.000 C 1348.744 1249.000,1346.302 1243.183,1349.479 1237.041 C 1350.806 1234.474,1352.182 1233.312,1354.173 1233.079 C 1354.544 1233.036,1356.231 1234.165,1357.923 1235.589 M823.918 1273.751 L 816.979 1300.979 810.239 1307.826 C 801.624 1316.579,796.511 1318.545,784.554 1317.701 C 768.459 1316.565,754.254 1308.756,750.012 1298.710 C 748.801 1295.845,744.490 1287.375,740.430 1279.889 C 736.370 1272.403,732.148 1264.177,731.047 1261.610 L 729.047 1256.943 733.273 1259.413 C 745.938 1266.813,767.002 1270.598,781.485 1268.076 C 797.895 1265.218,815.984 1257.762,825.416 1249.968 C 828.092 1247.757,830.411 1246.077,830.569 1246.236 C 830.727 1246.394,827.734 1258.776,823.918 1273.751 M1328.123 1278.002 C 1323.253 1279.152,1319.828 1281.988,1317.186 1287.059 C 1313.388 1294.346,1315.620 1303.201,1322.099 1306.551 C 1326.115 1308.628,1331.716 1308.338,1335.749 1305.846 C 1339.818 1303.332,1343.977 1295.329,1343.986 1290.000 C 1343.995 1285.278,1340.706 1280.193,1336.510 1278.440 C 1332.724 1276.858,1332.925 1276.868,1328.123 1278.002 M1335.185 1285.265 C 1336.269 1286.972,1336.194 1292.359,1335.045 1295.383 C 1333.635 1299.091,1329.659 1301.423,1327.090 1300.048 C 1322.492 1297.587,1322.134 1292.598,1326.088 1286.096 C 1327.880 1283.149,1328.467 1282.843,1331.255 1283.401 C 1332.985 1283.747,1334.754 1284.586,1335.185 1285.265 M1300.911 1318.875 C 1294.278 1321.224,1291.292 1323.508,1289.013 1327.975 C 1285.142 1335.562,1287.610 1343.685,1294.684 1346.641 C 1307.000 1351.787,1320.396 1336.067,1314.423 1323.478 C 1313.146 1320.787,1307.436 1316.557,1305.849 1317.125 C 1305.657 1317.194,1303.435 1317.981,1300.911 1318.875 M813.000 1320.507 C 813.000 1320.785,812.342 1325.398,811.538 1330.757 C 809.437 1344.754,807.192 1364.863,806.390 1376.868 L 805.698 1387.236 802.346 1383.368 C 796.033 1376.084,788.399 1365.494,779.314 1351.418 C 771.260 1338.940,762.000 1323.454,762.000 1322.464 C 762.000 1322.268,764.510 1322.971,767.579 1324.027 C 770.647 1325.083,776.886 1326.443,781.443 1327.049 C 791.643 1328.406,799.022 1327.245,806.334 1323.130 C 811.614 1320.158,813.000 1319.613,813.000 1320.507 M1306.800 1325.200 C 1309.541 1327.941,1307.179 1337.950,1303.455 1339.379 C 1295.387 1342.475,1291.807 1333.993,1298.400 1327.400 C 1301.927 1323.873,1304.737 1323.137,1306.800 1325.200 " stroke="none" fill="black" fill-rule="evenodd"/></svg>